<?xml version="1.0" standalone="no"?>
<!DOCTYPE svg PUBLIC "-//W3C//DTD SVG 20010904//EN"
 "http://www.w3.org/TR/2001/REC-SVG-20010904/DTD/svg10.dtd">
<svg version="1.0" xmlns="http://www.w3.org/2000/svg"
 width="750.000000pt" height="750.000000pt" viewBox="0 0 750.000000 750.000000"
 preserveAspectRatio="xMidYMid meet">

<g transform="translate(0.000000,750.000000) scale(0.100000,-0.100000)"
fill="#000000" stroke="none">
<path d="M6835 6406 c-85 -40 -215 -183 -338 -372 -214 -329 -355 -726 -412
-1158 -18 -139 -21 -547 -4 -693 38 -341 179 -622 395 -785 l52 -39 7 -232 c4
-128 4 -576 1 -997 -3 -509 -1 -782 6 -815 49 -237 354 -335 535 -171 21 19
50 56 63 83 l25 48 3 2480 c2 1784 0 2491 -8 2518 -14 47 -71 112 -121 138
-54 27 -140 25 -204 -5z"/>
<path d="M425 6402 c-42 -27 -72 -61 -90 -104 -22 -55 -23 -1242 0 -1372 44
-251 185 -447 430 -596 39 -23 72 -44 75 -47 3 -3 7 -678 10 -1501 l5 -1497
27 -51 c32 -60 94 -119 157 -147 71 -32 188 -30 262 4 61 29 119 82 145 132
45 85 44 56 44 1579 0 989 3 1454 10 1470 6 13 44 42 85 66 156 91 270 217
353 390 82 173 83 186 80 925 l-3 642 -24 36 c-40 59 -85 84 -151 84 -69 0
-127 -34 -156 -92 -18 -36 -19 -75 -24 -678 -6 -681 -5 -666 -57 -770 -65
-129 -166 -217 -295 -256 -56 -17 -88 -21 -167 -17 -89 3 -105 7 -173 40 -123
62 -217 168 -261 298 -21 64 -22 79 -27 705 -5 638 -5 640 -27 682 -32 59 -75
86 -142 91 -43 2 -63 -2 -86 -16z"/>
<path d="M1102 6404 c-39 -20 -74 -64 -91 -113 -8 -24 -11 -193 -11 -560 0
-495 2 -528 19 -568 21 -45 75 -87 128 -98 41 -8 105 10 141 40 61 51 61 51
63 636 2 528 2 534 -19 576 -45 87 -151 127 -230 87z"/>
<path d="M3764 6169 c-480 -37 -968 -230 -1352 -534 l-82 -65 2 -247 c3 -217
5 -247 20 -256 14 -9 37 9 135 104 429 413 930 619 1505 619 386 0 817 -129
1147 -344 201 -131 436 -348 619 -571 109 -132 123 -145 150 -129 21 13 32 47
77 243 l35 154 -42 56 c-55 74 -272 296 -373 381 -424 356 -896 547 -1455 590
-149 11 -235 11 -386 -1z"/>
<path d="M3345 5405 c-68 -37 -114 -107 -115 -173 0 -68 41 -121 162 -206 202
-141 337 -328 399 -551 18 -66 21 -97 16 -178 l-5 -97 29 -15 c100 -52 328
-65 483 -27 246 61 445 210 564 422 83 148 142 446 116 580 -5 25 -15 36 -42
47 -49 20 -230 28 -334 14 -213 -28 -455 -151 -555 -281 -21 -27 -41 -48 -46
-47 -4 1 -29 36 -56 77 -88 134 -270 317 -402 404 -52 34 -71 41 -123 44 -43
2 -70 -2 -91 -13z m1251 -587 c-18 -89 -92 -182 -187 -237 -51 -29 -186 -67
-209 -59 -18 6 57 138 108 191 72 75 191 136 266 137 27 0 28 -2 22 -32z"/>
<path d="M2892 4889 c-157 -80 -317 -230 -429 -401 -254 -388 -304 -894 -137
-1393 147 -439 502 -890 829 -1055 119 -60 188 -79 315 -87 102 -6 178 5 345
52 126 35 196 33 363 -11 181 -47 285 -53 410 -25 174 38 358 145 515 299 295
289 496 652 585 1057 24 110 26 139 26 350 0 248 -6 293 -71 490 -62 191 -213
435 -297 480 -32 17 -36 17 -59 2 -14 -9 -50 -63 -81 -121 -31 -58 -61 -108
-66 -111 -23 -14 -7 -62 49 -145 133 -198 194 -469 162 -715 -32 -246 -139
-534 -274 -735 -160 -240 -332 -407 -477 -464 -113 -45 -175 -41 -435 29 -173
46 -226 44 -433 -14 -79 -22 -170 -43 -201 -47 -194 -22 -433 151 -642 465
-90 136 -157 275 -213 441 -74 223 -96 385 -77 564 25 232 94 410 216 563 79
99 141 152 262 227 108 67 137 104 135 177 -2 107 -71 169 -187 169 -43 0 -69
-8 -133 -41z"/>
<path d="M1822 3278 c-9 -9 -12 -131 -12 -488 0 -544 -11 -478 106 -641 377
-527 907 -870 1551 -1004 179 -38 319 -48 572 -42 243 5 358 20 581 77 444
112 830 337 1155 671 220 226 360 430 468 676 80 181 165 479 153 529 -3 12
-43 49 -88 82 -46 34 -103 80 -128 102 -73 66 -78 61 -115 -100 -73 -319 -255
-673 -467 -910 -375 -419 -760 -632 -1314 -726 -151 -26 -481 -23 -637 4 -253
46 -432 103 -632 201 -572 282 -998 824 -1139 1450 -27 121 -35 138 -54 119z"/>
</g>
</svg>
